<svg width="24" height="24" viewBox="0 0 24 24" fill="none" xmlns="http://www.w3.org/2000/svg">
<path d="M20.334 20.643C20.334 18.433 19.456 16.3134 17.8933 14.7507C16.3305 13.1879 14.211 12.31 12.001 12.31C9.79092 12.31 7.67139 13.1879 6.10865 14.7507C4.54591 16.3134 3.66797 18.433 3.66797 20.643H20.334Z" stroke="black" stroke-width="1.3" stroke-miterlimit="10" stroke-linecap="round" stroke-linejoin="round"/>
<path d="M7.52905 7.68C7.52905 7.0923 7.64484 6.51036 7.86981 5.96741C8.09477 5.42447 8.4245 4.93117 8.84017 4.5157C9.25583 4.10022 9.74927 3.77071 10.2923 3.54599C10.8354 3.32127 11.4174 3.20574 12.0051 3.206C12.5926 3.20587 13.1744 3.32151 13.7172 3.54632C14.26 3.77112 14.7532 4.10069 15.1686 4.51617C15.584 4.93166 15.9134 5.42493 16.1381 5.9678C16.3628 6.51066 16.4783 7.09248 16.4781 7.68M20.3331 7.833H16.4771M16.4791 7.833C16.4791 8.4207 16.3633 9.00265 16.1383 9.54559C15.9133 10.0885 15.5836 10.5818 15.1679 10.9973C14.7523 11.4128 14.2588 11.7423 13.7158 11.967C13.1728 12.1917 12.5908 12.3073 12.0031 12.307C11.4154 12.3073 10.8335 12.1917 10.2906 11.967C9.74769 11.7422 9.25437 11.4127 8.83887 10.9972C8.42337 10.5817 8.09383 10.0884 7.86908 9.54544C7.64433 9.00251 7.52879 8.42061 7.52905 7.833H16.4791Z" stroke="black" stroke-width="1.3" stroke-miterlimit="10" stroke-linecap="round" stroke-linejoin="round"/>
</svg>
