<svg width="24" height="24" viewBox="0 0 24 24" fill="none" xmlns="http://www.w3.org/2000/svg">
<path d="M3.80505 3.6H4.26805C5.14805 3.6 5.91205 4.217 6.09405 5.08L6.37305 6.4M6.37305 6.4L7.75505 12.934H16.8441C17.6191 12.934 18.3151 12.454 18.5891 11.727L20.1251 7.663C20.1783 7.52173 20.1964 7.36966 20.178 7.21984C20.1595 7.07001 20.105 6.9269 20.019 6.8028C19.9331 6.67869 19.8183 6.5773 19.6845 6.50731C19.5508 6.43733 19.402 6.40085 19.2511 6.401L6.37305 6.4ZM11.7011 12.934H7.07005C6.88188 12.9269 6.69421 12.9578 6.51827 13.0249C6.34233 13.092 6.18173 13.1939 6.04608 13.3245C5.91044 13.4551 5.80254 13.6118 5.72884 13.785C5.65514 13.9583 5.61715 14.1447 5.61715 14.333C5.61715 14.5213 5.65514 14.7077 5.72884 14.881C5.80254 15.0542 5.91044 15.2109 6.04608 15.3415C6.18173 15.4721 6.34233 15.574 6.51827 15.6411C6.69421 15.7082 6.88188 15.7391 7.07005 15.732H18.7371M8.00905 20.4C7.82088 20.4071 7.63321 20.3762 7.45727 20.3091C7.28133 20.242 7.12073 20.1401 6.98508 20.0095C6.84944 19.8789 6.74154 19.7222 6.66784 19.549C6.59414 19.3757 6.55615 19.1893 6.55615 19.001C6.55615 18.8127 6.59414 18.6263 6.66784 18.453C6.74154 18.2798 6.84944 18.1231 6.98508 17.9925C7.12073 17.8619 7.28133 17.76 7.45727 17.6929C7.63321 17.6258 7.82088 17.5949 8.00905 17.602C8.37094 17.6157 8.71344 17.7691 8.96463 18.0299C9.21582 18.2908 9.35615 18.6389 9.35615 19.001C9.35615 19.3631 9.21582 19.7112 8.96463 19.9721C8.71344 20.2329 8.37094 20.3863 8.00905 20.4ZM16.4031 20.4C16.2149 20.4071 16.0272 20.3762 15.8513 20.3091C15.6753 20.242 15.5147 20.1401 15.3791 20.0095C15.2434 19.8789 15.1355 19.7222 15.0618 19.549C14.9881 19.3757 14.9501 19.1893 14.9501 19.001C14.9501 18.8127 14.9881 18.6263 15.0618 18.453C15.1355 18.2798 15.2434 18.1231 15.3791 17.9925C15.5147 17.8619 15.6753 17.76 15.8513 17.6929C16.0272 17.6258 16.2149 17.5949 16.4031 17.602C16.7649 17.6157 17.1074 17.7691 17.3586 18.0299C17.6098 18.2908 17.7501 18.6389 17.7501 19.001C17.7501 19.3631 17.6098 19.7112 17.3586 19.9721C17.1074 20.2329 16.7649 20.3863 16.4031 20.4Z" stroke="#333333" stroke-width="1.3" stroke-linecap="round" stroke-linejoin="round"/>
</svg>
