<svg width="24" height="24" viewBox="0 0 24 24" fill="none" xmlns="http://www.w3.org/2000/svg">
<path d="M3.88796 7.404C4.09965 6.89229 4.41016 6.42734 4.80174 6.03577C5.19331 5.6442 5.65825 5.33369 6.16996 5.122C6.68234 4.90987 7.23141 4.80047 7.78596 4.8C8.34004 4.79969 8.88873 4.90871 9.4006 5.1208C9.91248 5.3329 10.3775 5.6439 10.769 6.036L12.002 7.27L13.238 6.034C14.0291 5.24273 15.1022 4.79814 16.2211 4.79805C17.34 4.79795 18.4132 5.24236 19.2045 6.0335C19.9957 6.82464 20.4403 7.89771 20.4404 9.01664C20.4405 10.1356 19.9961 11.2087 19.205 12L12.002 19.2L4.80196 12C4.21158 11.4106 3.80954 10.6591 3.64682 9.84084C3.4841 9.0226 3.56803 8.17447 3.88796 7.404Z" stroke="black" stroke-width="1.4" stroke-miterlimit="10" stroke-linecap="round" stroke-linejoin="round"/>
</svg>
