<svg width="178" height="39" viewBox="0 0 178 39" fill="none" xmlns="http://www.w3.org/2000/svg">
<path d="M19.0341 10C19.1193 9.0625 18.892 8.3286 18.3523 7.7983C17.8125 7.25852 16.9034 6.98864 15.625 6.98864C14.8106 6.98864 14.1288 7.08333 13.5795 7.27273C13.0398 7.46212 12.6184 7.72254 12.3153 8.05398C12.0218 8.38542 11.8371 8.76894 11.7614 9.20455C11.6761 9.54545 11.6809 9.85795 11.7756 10.142C11.8797 10.4167 12.0739 10.6676 12.358 10.8949C12.6515 11.1222 13.035 11.3258 13.5085 11.5057C13.9915 11.6856 14.5644 11.8466 15.2273 11.9886L17.5 12.5C19.053 12.8409 20.3551 13.2907 21.4062 13.8494C22.4669 14.3987 23.3002 15.0521 23.9062 15.8097C24.5123 16.5672 24.91 17.4148 25.0994 18.3523C25.2983 19.2898 25.303 20.3125 25.1136 21.4205C24.7917 23.3333 24.0483 24.9527 22.8835 26.2784C21.7188 27.6042 20.1989 28.6127 18.3239 29.304C16.4489 29.9953 14.2803 30.3409 11.8182 30.3409C9.29924 30.3409 7.15909 29.9669 5.39773 29.2188C3.64583 28.4612 2.37689 27.3059 1.59091 25.7528C0.814394 24.1903 0.625 22.197 1.02273 19.7727H8.52273C8.40909 20.6629 8.50379 21.411 8.80682 22.017C9.10985 22.6231 9.59754 23.0824 10.2699 23.3949C10.9422 23.7074 11.7803 23.8636 12.7841 23.8636C13.6364 23.8636 14.3655 23.7595 14.9716 23.5511C15.5777 23.3428 16.0559 23.054 16.4062 22.6847C16.7566 22.3153 16.9697 21.8939 17.0455 21.4205C17.1212 20.9848 17.0455 20.5966 16.8182 20.2557C16.5909 19.9148 16.179 19.607 15.5824 19.3324C14.9858 19.0578 14.1667 18.8068 13.125 18.5795L10.3409 17.9545C7.86932 17.3864 6.00379 16.4489 4.74432 15.142C3.48485 13.8352 3.03977 12.0455 3.40909 9.77273C3.71212 7.91667 4.47443 6.29735 5.69602 4.91477C6.92708 3.52273 8.48958 2.44318 10.3835 1.67614C12.2869 0.89962 14.3939 0.511363 16.7045 0.511363C19.053 0.511363 21.018 0.904355 22.5994 1.69034C24.1903 2.47633 25.3314 3.57955 26.0227 5C26.7235 6.42045 26.9129 8.08712 26.5909 10H19.0341ZM44.2588 8.18182L43.2929 13.8636H28.9179L29.8838 8.18182H44.2588ZM33.5202 2.95455H41.3611L38.0372 22.983C37.9899 23.286 37.9993 23.5417 38.0656 23.75C38.1319 23.9489 38.2645 24.1004 38.4634 24.2045C38.6717 24.2992 38.9463 24.3466 39.2872 24.3466C39.5145 24.3466 39.7938 24.3182 40.1253 24.2614C40.4567 24.1951 40.7077 24.1477 40.8781 24.1193L41.1054 29.6307C40.7077 29.7443 40.1726 29.8722 39.5003 30.0142C38.8374 30.1657 38.0656 30.2652 37.1849 30.3125C35.3478 30.3977 33.8516 30.2036 32.6963 29.7301C31.5505 29.2566 30.755 28.518 30.3099 27.5142C29.8743 26.5009 29.7986 25.2367 30.0827 23.7216L33.5202 2.95455ZM54.7854 30.3977C52.4558 30.3977 50.524 29.9527 48.9899 29.0625C47.4558 28.1629 46.3763 26.875 45.7513 25.1989C45.1263 23.5133 45.0126 21.4962 45.4104 19.1477C45.7892 16.8939 46.5704 14.9242 47.7541 13.2386C48.9473 11.553 50.4482 10.2415 52.257 9.30398C54.0751 8.36648 56.1111 7.89773 58.3649 7.89773C60.0126 7.89773 61.4568 8.15341 62.6973 8.66477C63.9473 9.17614 64.9653 9.91951 65.7513 10.8949C66.5373 11.8703 67.0676 13.0492 67.3422 14.4318C67.6263 15.8049 67.6263 17.358 67.3422 19.0909L67.0581 20.9091H47.5695L48.2513 16.5909H60.524C60.6187 15.9659 60.5571 15.4167 60.3393 14.9432C60.131 14.4602 59.7948 14.0862 59.3308 13.821C58.8763 13.5464 58.327 13.4091 57.6831 13.4091C57.0392 13.4091 56.4331 13.5464 55.8649 13.821C55.3062 14.0956 54.828 14.4792 54.4303 14.9716C54.042 15.464 53.7816 16.0417 53.649 16.7045L52.7967 21.25C52.6831 21.9508 52.7257 22.5758 52.9246 23.125C53.1234 23.6742 53.4691 24.1051 53.9615 24.4176C54.4539 24.7301 55.0884 24.8864 55.8649 24.8864C56.3952 24.8864 56.8971 24.8153 57.3706 24.6733C57.8536 24.5218 58.2797 24.304 58.649 24.0199C59.0278 23.7263 59.3308 23.3712 59.5581 22.9545H66.7172C66.2058 24.4697 65.3962 25.786 64.2882 26.9034C63.1897 28.0114 61.8356 28.8731 60.2257 29.4886C58.6253 30.0947 56.8119 30.3977 54.7854 30.3977ZM68.2168 38.1818L73.2452 8.18182H81.0293L80.4043 11.9886H80.5747C80.9724 11.25 81.4933 10.5729 82.1372 9.95739C82.7906 9.33239 83.5577 8.83523 84.4384 8.46591C85.3285 8.08712 86.3134 7.89773 87.3929 7.89773C88.8323 7.89773 90.1344 8.28125 91.2991 9.0483C92.4639 9.81534 93.3209 11.0227 93.8702 12.6705C94.4194 14.3182 94.4762 16.4583 94.0406 19.0909C93.624 21.6098 92.8806 23.6979 91.8105 25.3551C90.7499 27.0123 89.4999 28.2481 88.0605 29.0625C86.6306 29.8769 85.1391 30.2841 83.5861 30.2841C82.5634 30.2841 81.6779 30.1184 80.9298 29.7869C80.1817 29.446 79.5804 28.9867 79.1259 28.4091C78.6713 27.822 78.3588 27.1591 78.1884 26.4205H78.0179L76.0861 38.1818H68.2168ZM79.0974 19.0909C78.927 20.1515 78.9128 21.0701 79.0548 21.8466C79.2063 22.6136 79.5046 23.2102 79.9497 23.6364C80.4043 24.053 80.9914 24.2614 81.7111 24.2614C82.4308 24.2614 83.0747 24.0578 83.6429 23.6506C84.2111 23.2339 84.694 22.642 85.0918 21.875C85.4895 21.0985 85.7831 20.1705 85.9724 19.0909C86.1429 18.0114 86.1571 17.0881 86.0151 16.321C85.873 15.5445 85.5842 14.9527 85.1486 14.5455C84.713 14.1288 84.1353 13.9205 83.4156 13.9205C82.6959 13.9205 82.0378 14.1288 81.4412 14.5455C80.8541 14.9527 80.3569 15.5445 79.9497 16.321C79.552 17.0881 79.2679 18.0114 79.0974 19.0909ZM118.63 15.2841H111.584C111.622 14.8295 111.542 14.4413 111.343 14.1193C111.144 13.7973 110.865 13.5511 110.505 13.3807C110.154 13.2102 109.757 13.125 109.312 13.125C108.535 13.125 107.829 13.3002 107.195 13.6506C106.561 13.9915 106.205 14.4413 106.13 15C106.082 15.2178 106.153 15.4214 106.343 15.6108C106.532 15.8002 107.029 15.9754 107.834 16.1364L112.152 16.9318C114.312 17.3295 115.883 18.054 116.868 19.1051C117.863 20.1468 118.222 21.5246 117.948 23.2386C117.692 24.7254 117.039 26.0038 115.988 27.0739C114.937 28.1439 113.601 28.9678 111.982 29.5455C110.372 30.1136 108.592 30.3977 106.641 30.3977C103.204 30.3977 100.628 29.7112 98.9138 28.3381C97.2092 26.965 96.4327 25.1705 96.5842 22.9545H104.198C104.217 23.6648 104.454 24.1998 104.908 24.5597C105.372 24.91 105.988 25.0947 106.755 25.1136C107.588 25.142 108.317 24.9763 108.942 24.6165C109.567 24.2472 109.918 23.7879 109.993 23.2386C110.022 22.9261 109.884 22.6894 109.581 22.5284C109.288 22.3674 108.724 22.2064 107.891 22.0455L104.141 21.3636C101.982 20.9754 100.41 20.1989 99.4251 19.0341C98.4403 17.8598 98.0994 16.3636 98.4024 14.5455C98.6486 13.0966 99.2357 11.8797 100.164 10.8949C101.101 9.91004 102.332 9.16667 103.857 8.66477C105.382 8.15341 107.143 7.89773 109.141 7.89773C112.408 7.89773 114.88 8.55587 116.556 9.87216C118.241 11.179 118.933 12.983 118.63 15.2841ZM142.548 0.90909H150.445L147.349 19.5455C146.989 21.7614 146.146 23.679 144.82 25.2983C143.504 26.9081 141.828 28.1534 139.792 29.0341C137.756 29.9053 135.493 30.3409 133.002 30.3409C130.493 30.3409 128.371 29.9053 126.638 29.0341C124.906 28.1534 123.646 26.9081 122.86 25.2983C122.084 23.679 121.875 21.7614 122.235 19.5455L125.332 0.90909H133.229L130.246 18.8636C130.104 19.7633 130.175 20.5634 130.46 21.2642C130.744 21.965 131.203 22.5189 131.837 22.9261C132.472 23.3239 133.239 23.5227 134.138 23.5227C135.048 23.5227 135.886 23.3239 136.653 22.9261C137.429 22.5189 138.073 21.965 138.585 21.2642C139.096 20.5634 139.423 19.7633 139.565 18.8636L142.548 0.90909ZM150.169 30L154.999 0.90909H167.556C169.715 0.90909 171.533 1.33523 173.01 2.1875C174.488 3.03977 175.548 4.23769 176.192 5.78125C176.836 7.32481 176.988 9.12879 176.647 11.1932C176.306 13.2955 175.548 15.1089 174.374 16.6335C173.209 18.1487 171.722 19.3182 169.914 20.142C168.114 20.9564 166.097 21.3636 163.863 21.3636H156.363L157.385 15.2273H163.294C164.241 15.2273 165.075 15.0663 165.794 14.7443C166.514 14.4129 167.096 13.9489 167.541 13.3523C167.987 12.7462 168.275 12.0265 168.408 11.1932C168.541 10.3598 168.479 9.64962 168.223 9.0625C167.977 8.46591 167.551 8.01136 166.945 7.69886C166.348 7.37689 165.586 7.21591 164.658 7.21591H161.874L158.067 30H150.169Z" fill="black"/>
</svg>
