<svg width="21" height="17" viewBox="0 0 21 17" fill="none" xmlns="http://www.w3.org/2000/svg">
<path d="M20.2799 2.20399C20.0891 4.19839 18.5375 14.3216 18.2063 15.3368C17.9219 16.2044 17.6231 16.9532 17.0579 16.9532C16.4065 16.9351 15.7771 16.7135 15.2579 16.3196C14.6459 15.8804 10.5779 13.1588 10.0271 12.806C9.53034 12.4928 9.00834 11.726 9.74634 10.9628C10.3547 10.3472 14.9555 5.87959 15.3479 5.47999C15.7403 5.08039 15.3479 4.58359 14.8763 4.97599C14.4047 5.36839 7.67994 9.86119 7.11474 10.2212C6.3894 10.6261 5.53625 10.7369 4.73154 10.5308C3.83874 10.286 2.32674 9.81079 1.72914 9.61279C1.13154 9.41479 0.944336 9.20959 0.944336 8.85679C0.944336 8.35639 1.66434 8.01079 2.38434 7.69399C3.10434 7.37719 16.7843 1.57399 17.8643 1.18879C18.6419 0.907989 19.3043 0.799989 19.7651 1.01599C20.1503 1.19599 20.3411 1.59919 20.2799 2.20399Z" fill="#242424"/>
</svg>
