<svg width="24" height="16" viewBox="0 0 24 16" fill="none" xmlns="http://www.w3.org/2000/svg">
<path d="M23.9374 1.8404C23.982 1.70709 24.0028 1.56693 23.9986 1.4264C23.9986 1.0664 23.7358 0.799999 23.149 0.799999H20.5318C20.2807 0.793638 20.0341 0.867773 19.8281 1.01157C19.6221 1.15536 19.4676 1.36127 19.387 1.5992C19.387 1.5992 17.7598 4.9616 15.8734 7.1756C15.265 7.8164 14.9554 7.7984 14.6242 7.7984C14.4384 7.76902 14.2706 7.67013 14.155 7.52174C14.0394 7.37335 13.9845 7.18656 14.0014 6.9992V1.8152C14.0014 1.1204 13.825 0.799999 13.2814 0.799999H8.61938C8.53578 0.798395 8.45274 0.814042 8.37545 0.845962C8.29817 0.877882 8.2283 0.92539 8.17019 0.985521C8.11209 1.04565 8.067 1.11711 8.03775 1.19545C8.0085 1.27378 7.99571 1.3573 8.00018 1.4408C8.00018 2.1068 8.89658 2.2688 9.00098 4.1372V7.7588C9.00098 8.6408 8.84618 8.7992 8.51498 8.7992C7.62578 8.7992 5.87978 5.8004 4.70258 1.88C4.44698 1.106 4.19498 0.799999 3.53258 0.799999H0.890176C0.126976 0.799999 0.000976562 1.16 0.000976562 1.574C0.000976562 2.294 0.598576 6.1928 3.87458 10.6748C6.25058 13.9148 9.37898 15.8012 12.1546 15.8012C13.8322 15.8012 14.005 15.3728 14.005 14.7212V11.7332C14.005 10.934 14.1886 10.8008 14.725 10.8008C15.103 10.8008 15.8806 11.0492 17.3818 12.7988C19.1134 14.8184 19.4266 15.8012 20.4166 15.8012H23.0374C23.6422 15.8012 23.9914 15.5456 24.0058 15.0488C24.0072 14.9054 23.989 14.7625 23.9518 14.624C23.7574 14.0516 22.8718 12.6404 21.7558 11.3012C21.1402 10.556 20.5354 9.8216 20.2546 9.422C20.1031 9.24883 20.0155 9.02906 20.0062 8.7992C20.0415 8.58122 20.1265 8.37429 20.2546 8.1944C20.2222 8.1944 23.6062 3.4424 23.9374 1.8404Z" fill="white"/>
</svg>
