<svg width="24" height="16" viewBox="0 0 24 16" fill="none" xmlns="http://www.w3.org/2000/svg">
<path d="M23.9376 1.84046C23.9823 1.70715 24.003 1.56699 23.9988 1.42646C23.9988 1.06646 23.736 0.80006 23.1492 0.80006H20.532C20.2809 0.793699 20.0343 0.867834 19.8284 1.01163C19.6224 1.15542 19.4678 1.36133 19.3872 1.59926C19.3872 1.59926 17.76 4.96166 15.8736 7.17566C15.2652 7.81646 14.9556 7.79846 14.6244 7.79846C14.4386 7.76909 14.2709 7.67019 14.1553 7.5218C14.0396 7.37341 13.9847 7.18662 14.0016 6.99926V1.81526C14.0016 1.12046 13.8252 0.80006 13.2816 0.80006H8.61962C8.53602 0.798457 8.45298 0.814103 8.3757 0.846023C8.29842 0.877943 8.22854 0.925451 8.17044 0.985582C8.11233 1.04571 8.06725 1.11717 8.03799 1.19551C8.00874 1.27384 7.99595 1.35736 8.00042 1.44086C8.00042 2.10686 8.89682 2.26886 9.00122 4.13726V7.75886C9.00122 8.64086 8.84642 8.79926 8.51522 8.79926C7.62602 8.79926 5.88002 5.80046 4.70282 1.88006C4.44722 1.10606 4.19522 0.80006 3.53282 0.80006H0.89042C0.12722 0.80006 0.0012207 1.16006 0.0012207 1.57406C0.0012207 2.29406 0.598821 6.19286 3.87482 10.6749C6.25082 13.9149 9.37922 15.8013 12.1548 15.8013C13.8324 15.8013 14.0052 15.3729 14.0052 14.7213V11.7333C14.0052 10.9341 14.1888 10.8009 14.7252 10.8009C15.1032 10.8009 15.8808 11.0493 17.382 12.7989C19.1136 14.8185 19.4268 15.8013 20.4168 15.8013H23.0376C23.6424 15.8013 23.9916 15.5457 24.006 15.0489C24.0074 14.9055 23.9893 14.7625 23.952 14.6241C23.7576 14.0517 22.872 12.6405 21.756 11.3013C21.1404 10.5561 20.5356 9.82166 20.2548 9.42206C20.1034 9.24889 20.0157 9.02912 20.0064 8.79926C20.0418 8.58128 20.1267 8.37435 20.2548 8.19446C20.2224 8.19446 23.6064 3.44246 23.9376 1.84046Z" fill="#242424"/>
</svg>
