<svg width="23" height="22" viewBox="0 0 23 22" fill="none" xmlns="http://www.w3.org/2000/svg">
<path d="M1.57484 3.32701C1.57484 3.32701 1.54365 3.29236 1.48127 3.22304C1.41889 3.15373 1.3877 3.02897 1.3877 2.84875C1.3877 2.66854 1.45008 2.50912 1.57484 2.37049C1.6996 2.23187 1.85902 2.16255 2.0531 2.16255H5.17219C5.58807 2.16255 5.88612 2.24573 6.06633 2.41208C6.24655 2.57843 6.36438 2.84182 6.41983 3.20225L6.58618 4.32512H21.1419C21.3915 4.32512 21.5856 4.39444 21.7242 4.53306C21.8628 4.67169 21.9321 4.8519 21.9321 5.07371C21.9321 5.12916 21.9183 5.24006 21.8905 5.40641L21.1835 10.1058C20.9895 11.4921 20.2686 12.1852 19.021 12.1852H7.75064L7.87541 13.1418C7.95858 13.724 8.26356 14.0151 8.79034 14.0151H19.021C19.1319 14.0151 19.2358 14.0428 19.3329 14.0983C19.4299 14.1537 19.5131 14.2369 19.5824 14.3478C19.6517 14.4587 19.6864 14.5696 19.6864 14.6805C19.6864 14.8746 19.6171 15.0409 19.4784 15.1796C19.3398 15.3182 19.1873 15.3875 19.021 15.3875H8.62399C7.40408 15.3875 6.68322 14.6944 6.46142 13.3081L5.04743 3.53495H2.0531C1.85902 3.53495 1.6996 3.46564 1.57484 3.32701ZM8.29129 19.2968C8.29129 19.2968 8.22197 19.2275 8.08335 19.0888C7.94472 18.9502 7.87541 18.6729 7.87541 18.2571C7.87541 17.8412 8.01403 17.4946 8.29129 17.2174C8.56854 16.9401 8.90817 16.8015 9.31019 16.8015C9.71221 16.8015 10.0588 16.9401 10.3499 17.2174C10.641 17.4946 10.7866 17.8412 10.7866 18.2571C10.7866 18.6729 10.641 19.0195 10.3499 19.2968C10.0588 19.574 9.71221 19.7126 9.31019 19.7126C8.90817 19.7126 8.56854 19.574 8.29129 19.2968ZM16.6297 19.276C16.6297 19.276 16.5569 19.2032 16.4113 19.0576C16.2658 18.9121 16.193 18.6383 16.193 18.2363C16.193 17.8343 16.3385 17.4946 16.6297 17.2174C16.9208 16.9401 17.2673 16.8015 17.6694 16.8015C18.0714 16.8015 18.411 16.9401 18.6883 17.2174C18.9655 17.4946 19.1041 17.8412 19.1041 18.2571C19.1041 18.6729 18.9655 19.0195 18.6883 19.2968C18.411 19.574 18.0714 19.7126 17.6694 19.7126C17.2673 19.7126 16.9208 19.5671 16.6297 19.276Z" fill="white"/>
</svg>
