<svg width="22" height="16" viewBox="0 0 22 16" fill="none" xmlns="http://www.w3.org/2000/svg">
<path fill-rule="evenodd" clip-rule="evenodd" d="M10.9995 0.87561C10.9995 0.87561 17.3643 0.87561 18.9591 1.30761C19.3869 1.42244 19.7772 1.6469 20.0916 1.95879C20.406 2.27069 20.6336 2.65922 20.7519 3.08601C21.1731 4.68081 21.1731 8.00001 21.1731 8.00001C21.1731 8.00001 21.1731 11.3192 20.7663 12.9068C20.6494 13.3378 20.4217 13.7307 20.106 14.0464C19.7902 14.3622 19.3973 14.5899 18.9663 14.7068C17.3715 15.128 10.9995 15.128 10.9995 15.128C10.9995 15.128 4.63472 15.128 3.03272 14.6996C2.60174 14.5827 2.20886 14.355 1.89309 14.0392C1.57732 13.7235 1.34966 13.3306 1.23272 12.8996C0.811523 11.3192 0.811523 8.00001 0.811523 8.00001C0.811523 8.00001 0.811523 4.69521 1.23272 3.09321C1.35352 2.66416 1.58248 2.27332 1.89766 1.95815C2.21284 1.64297 2.60367 1.41401 3.03272 1.29321C4.62392 0.875611 10.9995 0.87561 10.9995 0.87561ZM14.2907 8L8.99512 11.0456V4.94L14.2907 8Z" fill="white"/>
</svg>
