<svg width="22" height="16" viewBox="0 0 22 16" fill="none" xmlns="http://www.w3.org/2000/svg">
<path fill-rule="evenodd" clip-rule="evenodd" d="M11 0.87561C11 0.87561 17.3648 0.87561 18.9596 1.30761C19.3873 1.42244 19.7777 1.6469 20.0921 1.95879C20.4065 2.27069 20.6341 2.65922 20.7524 3.08601C21.1736 4.68081 21.1736 8.00001 21.1736 8.00001C21.1736 8.00001 21.1736 11.3192 20.7668 12.9068C20.6499 13.3378 20.4222 13.7307 20.1064 14.0464C19.7907 14.3622 19.3978 14.5899 18.9668 14.7068C17.372 15.128 11 15.128 11 15.128C11 15.128 4.63521 15.128 3.03321 14.6996C2.60223 14.5827 2.20935 14.355 1.89358 14.0392C1.57781 13.7235 1.35015 13.3306 1.23321 12.8996C0.812012 11.3192 0.812012 8.00001 0.812012 8.00001C0.812012 8.00001 0.812012 4.69521 1.23321 3.09321C1.35401 2.66416 1.58297 2.27332 1.89815 1.95815C2.21332 1.64297 2.60416 1.41401 3.03321 1.29321C4.62441 0.875611 11 0.87561 11 0.87561ZM14.2905 7.99994L8.99487 11.0455V4.93994L14.2905 7.99994Z" fill="#242424"/>
</svg>
